<svg xmlns="http://www.w3.org/2000/svg" width="775.788" height="431.224" viewBox="0 0 775.788 431.224"><g transform="translate(0 0)"><g transform="translate(0)"><path d="M71.465,120.549C98.3,147.12,124.932,173.9,151.648,200.6c1.484,1.484,3.015,3.015,4.7,4.7l63.608,63.3q28.354,28.157,56.764,56.258c10.332,10.177,21.852,18.479,36.379,21.718,17.835,3.98,34.819,1.661,50.647-7.422a71.151,71.151,0,0,0,14.34-10.563c20.592-20.173,40.9-40.636,61.285-61.014.954-.952,1.746-2.065,3.039-3.611l58.019-57.554c1.746-1.508,3.456-2.809,4.964-4.311q23.658-23.563,47.259-47.179c11.389-11.378,140.159-130.828,151.6-142.149C714.2,2.941,726.115-1.432,740.1.413c31.745,4.185,43.6,37.279,30.33,61.34A47.176,47.176,0,0,1,762.3,71.941c-26,26.006-169.535,159.932-195.594,185.881l-68.541,68.157c-19.835,19.8-39.741,39.532-59.43,59.478A153.608,153.608,0,0,1,406.77,410.2a149.509,149.509,0,0,1-65.981,20.662,153.1,153.1,0,0,1-51.959-5.316c-25.473-7.1-47.792-19.437-66.629-37.9-17.6-17.252-34.969-34.738-52.459-52.1-4.063-4.034-8.2-8-12.526-12.209l-59.458-59.8Q55.4,221.562,13,179.638A47.692,47.692,0,0,1,2.915,164.309c-7.265-16.761-.45-39.13,14.9-49.084C35.149,103.985,56.695,105.93,71.465,120.549Z" transform="translate(775.788 431.224) rotate(180)" fill="#ffffff" fill-rule="evenodd"/></g></g></svg>